<svg height="512pt" viewBox="0 0 512 512" width="512pt" xmlns="http://www.w3.org/2000/svg"><path d="m512 256c0 141.386719-114.613281 256-256 256-12.171875 0-24.136719-.847656-35.859375-2.496094-16.386719-2.300781-32.277344-6.144531-47.511719-11.378906-.011718 0-.011718 0-.011718 0-3.886719-1.339844-7.730469-2.769531-11.523438-4.296875-27.230469-10.867187-52.152344-26.289063-73.84375-45.316406-6.59375-5.789063-12.894531-11.910157-18.863281-18.335938-20.039063-21.578125-36.402344-46.605469-48.085938-74.105469-.289062-.691406-.582031-1.359374-.875-2.058593 0 0 0-.011719 0-.019531 0-.011719-.011719-.023438-.011719-.03125-6.175781-14.890626-10.980468-30.480469-14.261718-46.625-3.375-16.582032-5.152344-33.75-5.152344-51.335938 0-141.386719 114.613281-256 256-256s256 114.613281 256 256zm0 0" fill="#40c4ad"/><path d="m511.996094 172.757812c0 90.476563-69.558594 164.710938-158.113282 172.136719-4.820312.410157-9.710937.617188-14.640624.617188-4.929688 0-9.820313-.207031-14.640626-.617188-88.554687-7.425781-158.113281-81.660156-158.113281-172.136719 0-90.476562 69.558594-164.714843 158.113281-172.140624 4.820313-.410157 9.710938-.61328175 14.640626-.61328175 4.929687 0 9.820312.20312475 14.640624.61328175 88.554688 7.425781 158.113282 81.664062 158.113282 172.140624zm0 0" fill="#ffb525"/><path d="m494.457031 172.757812c0 81.289063-62.496093 147.988282-142.0625 154.660157-4.332031.371093-8.722656.554687-13.152343.554687-4.429688 0-8.824219-.183594-13.15625-.554687-79.5625-6.671875-142.0625-73.371094-142.0625-154.660157 0-81.292968 62.5-147.992187 142.0625-154.664062 4.332031-.371094 8.726562-.554688 13.15625-.554688 4.429687 0 8.820312.183594 13.152343.554688 79.566407 6.671875 142.0625 73.371094 142.0625 154.664062zm0 0" fill="#ffe662"/><path d="m457.484375 172.757812c0 65.300782-52.941406 118.238282-118.242187 118.238282-65.304688 0-118.242188-52.9375-118.242188-118.238282 0-65.304687 52.9375-118.242187 118.242188-118.242187 65.300781 0 118.242187 52.9375 118.242187 118.242187zm0 0" fill="#ffb525"/><path d="m434.828125 172.757812c0 52.789063-42.796875 95.582032-95.585937 95.582032-52.789063 0-95.585938-42.792969-95.585938-95.582032 0-52.792968 42.796875-95.585937 95.585938-95.585937 52.789062 0 95.585937 42.792969 95.585937 95.585937zm0 0" fill="#ffe662"/><g fill="#ffb525"><path d="m341.710938 214.621094c7.972656 0 16.515624-4.558594 16.515624-13.292969 0-7.214844-4.746093-11.769531-13.480468-14.996094l-12.53125-4.558593c-20.503906-7.402344-34.171875-14.996094-34.171875-35.882813 0-14.617187 10.0625-30.566406 28.855469-34.742187v-17.660157h26.011718v17.277344c15.378906 2.660156 25.253906 12.53125 27.527344 15.570313l-13.476562 17.464843c-5.886719-6.453125-15.570313-13.480469-27.339844-13.480469-10.0625 0-16.898438 5.695313-16.898438 13.101563 0 6.835937 4.75 11.390625 13.292969 14.429687l6.074219 2.085938c20.125 6.835938 41.199218 13.863281 41.199218 38.542969 0 18.035156-12.53125 31.328125-30.378906 35.125v18.414062h-26.011718v-18.605469c-12.71875-2.277343-26.199219-11.203124-31.707032-17.847656l13.671875-17.464844c8.734375 9.492188 23.164063 16.519532 32.847657 16.519532zm0 0"/><path d="m352.394531 272.804688v54.613281c-4.332031.371093-8.722656.554687-13.152343.554687-4.429688 0-8.824219-.183594-13.15625-.554687v-54.613281zm0 0"/><path d="m352.394531 18.09375v54.613281h-26.304687v-54.613281c4.332031-.371094 8.726562-.554688 13.152344-.554688 4.429687 0 8.820312.183594 13.152343.554688zm0 0"/><path d="m277.796875 252.800781-38.617187 38.621094c-3.324219-2.804687-6.5625-5.78125-9.691407-8.910156-3.132812-3.132813-6.109375-6.371094-8.910156-9.691407l38.617187-38.621093zm0 0"/><path d="m457.90625 72.695312-38.617188 38.617188-18.601562-18.601562 38.617188-38.621094c3.324218 2.804687 6.5625 5.78125 9.691406 8.914062 3.128906 3.128906 6.109375 6.367188 8.910156 9.691406zm0 0"/><path d="m239.191406 185.910156h-54.613281c-.367187-4.332031-.554687-8.726562-.554687-13.152344 0-4.429687.1875-8.824218.554687-13.15625h54.613281zm0 0"/><path d="m493.90625 185.910156h-54.617188v-26.308594h54.617188c.367188 4.332032.550781 8.726563.550781 13.15625 0 4.425782-.183593 8.820313-.550781 13.152344zm0 0"/><path d="m259.195312 111.3125-38.617187-38.617188c2.800781-3.324218 5.777344-6.5625 8.910156-9.691406 3.132813-3.132812 6.367188-6.109375 9.691407-8.914062l38.617187 38.621094zm0 0"/><path d="m439.304688 291.421875-38.617188-38.621094 18.601562-18.601562 38.617188 38.621093c-2.800781 3.320313-5.777344 6.558594-8.910156 9.691407-3.132813 3.128906-6.367188 6.105469-9.691406 8.910156zm0 0"/><path d="m347 342.914062c0 79.515626-53.726562 146.496094-126.859375 166.589844-107.480469-15.058594-193.558594-96.863281-214.988281-202.167968 15.433594-73.695313 77.84375-130.132813 154.457031-136.558594 4.816406-.40625 9.707031-.617188 14.636719-.617188 4.921875 0 9.8125.210938 14.640625.617188 88.554687 7.429687 158.113281 81.671875 158.113281 172.136718zm0 0"/></g><path d="m329.457031 342.914062c0 81.292969-62.496093 148-142.054687 154.667969-4.335938.375-8.734375.550781-13.15625.550781-.542969 0-1.085938 0-1.617188-.007812-69.382812-23.898438-125.285156-76.769531-153.214844-144.164062-.261718-3.648438-.386718-7.328126-.386718-11.046876 0-81.28125 62.496094-147.988281 142.066406-154.65625 4.324219-.375 8.722656-.550781 13.152344-.550781 4.421875 0 8.820312.175781 13.15625.550781 79.558594 6.667969 142.054687 73.375 142.054687 154.65625zm0 0" fill="#ffe662"/><path d="m292.484375 342.917969c0 65.304687-52.9375 118.242187-118.242187 118.242187-65.300782 0-118.238282-52.9375-118.238282-118.242187 0-65.300781 52.9375-118.238281 118.238282-118.238281 65.304687 0 118.242187 52.9375 118.242187 118.238281zm0 0" fill="#ffb525"/><path d="m269.828125 342.917969c0 52.792969-42.792969 95.585937-95.585937 95.585937-52.789063 0-95.582032-42.792968-95.582032-95.585937 0-52.789063 42.792969-95.582031 95.582032-95.582031 52.792968 0 95.585937 42.792968 95.585937 95.582031zm0 0" fill="#ffe662"/><path d="m176.710938 384.785156c7.976562 0 16.519531-4.558594 16.519531-13.292968 0-7.214844-4.746094-11.769532-13.480469-14.996094l-12.53125-4.558594c-20.503906-7.402344-34.175781-14.996094-34.175781-35.882812 0-14.617188 10.0625-30.566407 28.859375-34.742188v-17.65625h26.011718v17.277344c15.378907 2.65625 25.25 12.527344 27.527344 15.566406l-13.476562 17.464844c-5.886719-6.453125-15.570313-13.476563-27.339844-13.476563-10.0625 0-16.898438 5.695313-16.898438 13.097657 0 6.835937 4.75 11.390624 13.292969 14.429687l6.074219 2.089844c20.125 6.832031 41.199219 13.859375 41.199219 38.539062 0 18.035157-12.53125 31.328125-30.378907 35.125v18.414063h-26.011718v-18.605469c-12.71875-2.277344-26.199219-11.203125-31.703125-17.847656l13.667969-17.464844c8.734374 9.492187 23.160156 16.519531 32.84375 16.519531zm0 0" fill="#ffb525"/><path d="m187.402344 442.964844v54.617187c-4.335938.375-8.734375.550781-13.15625.550781-.542969 0-1.085938 0-1.617188-.007812-.011718 0-.011718 0-.011718 0-3.886719-1.339844-7.730469-2.769531-11.523438-4.296875v-50.863281zm0 0" fill="#ffb525"/><path d="m187.398438 188.253906v54.617188h-26.308594v-54.617188c4.332031-.367187 8.726562-.550781 13.152344-.550781 4.429687 0 8.824218.183594 13.15625.550781zm0 0" fill="#ffb525"/><path d="m112.796875 422.964844-25.546875 25.546875c-6.59375-5.789063-12.894531-11.910157-18.863281-18.335938l25.8125-25.8125zm0 0" fill="#ffb525"/><path d="m292.910156 242.855469-38.621094 38.621093-18.601562-18.601562 38.617188-38.621094c3.324218 2.804688 6.5625 5.78125 9.691406 8.910156 3.132812 3.132813 6.109375 6.371094 8.914062 9.691407zm0 0" fill="#ffb525"/><path d="m74.199219 329.769531v26.300781h-53.898438c-.289062-.691406-.582031-1.359374-.875-2.058593 0 0 0-.011719 0-.019531-.261719-3.648438-.398437-7.359376-.398437-11.078126 0-4.417968.1875-8.820312.554687-13.144531zm0 0" fill="#ffb525"/><path d="m328.90625 356.074219h-54.613281v-26.308594h54.613281c.371094 4.332031.554688 8.726563.554688 13.152344 0 4.429687-.183594 8.824219-.554688 13.15625zm0 0" fill="#ffb525"/><path d="m94.199219 281.476562-38.621094-38.621093c2.804687-3.320313 5.78125-6.558594 8.910156-9.691407 3.132813-3.128906 6.371094-6.105468 9.691407-8.910156l38.621093 38.621094zm0 0" fill="#ffb525"/><path d="m274.304688 461.585938-38.617188-38.621094 18.601562-18.601563 38.621094 38.617188c-2.804687 3.324219-5.78125 6.5625-8.914062 9.695312-3.128906 3.128907-6.367188 6.105469-9.691406 8.910157zm0 0" fill="#ffb525"/></svg>