<svg enable-background="new 0 0 140 140" height="512" viewBox="0 0 140 140" width="512" xmlns="http://www.w3.org/2000/svg"><circle cx="70" cy="70" fill="#509fd7" r="64"/><path d="m22.9000244 97.4799805.0099487-.0102539c-.0499877-.0595704-.1199951-.1098633-.1599731-.1796875-.3599854-.6298828-.1400146-1.4399414.4799805-1.7998047l4.1600342-2.4003906-1.7200317-1.7197266c-.0100098 0-.0100098-.0102539-.0100098-.0102539l-.0299683-.0297852c-.25-.3203125-.3599854-.75-.25-1.1699219.1900024-.7001953.9099731-1.1201172 1.6099854-.9301758l5.3699951 1.4399414c.2600098.0703125.460022.2299805.6300049.4199219l.0200195-.0200195 16.0899658 16.1000977c0 .0102539.0100098.0102539.0100098.0200195l25.6700439 25.6899414c.0899658.0703125.1699829.1499023.2399902.2402344l.6199951.6201172c-1.8599853.1596679-3.7399902.2597656-5.6400146.2597656-3.9899902 0-7.8800049-.3798828-11.6699829-1.0800781z" opacity=".1"/><path d="m132.9299927 58.3701172c.6900024 3.7797851 1.0700073 7.659668 1.0700073 11.6298828 0 1.9301758-.0999756 3.8398438-.2700195 5.7299805l-42.7299805-42.7299805.0300293-.0400391c-.1600342-.1601562-.3100586-.3500977-.3700562-.5898438l-1.4400024-5.3701171c-.1899414-.7099609.2300415-1.4301758.9300537-1.6098633.4599609-.1201172.9199829.0297852 1.2399902.3398438v-.0400391l1.7000122 1.7001953 2.3899536-4.1499023c.3699951-.6303711 1.1700439-.840332 1.8000488-.4804688.1199951.0703125.2099609.1601562.3099976.2602539z" opacity=".1"/><path d="m69.0599976 124.1699219-53.2199707-53.2299805c-.0100098 0-.0200195-.0097656-.0200195-.0200195h-.0100098c-.2299805-.2397461-.3699951-.5600586-.3699951-.9101562 0-.7299805.5900269-1.3198242 1.3200073-1.3198242h6.2099609l-1.6899414-1.6801758c-.5100098-.5195312-.5100098-1.3496094 0-1.8598633.5099487-.5200195 1.3499756-.5200195 1.8599854 0l9.6199951 9.6201172c-.2000122-1.5600586-.3099976-3.1499023-.3099976-4.7602539 0-3.8798828.5899658-7.6098633 1.6799927-11.1298828l-8.2999878-8.2998047.0299683-.0200195c-.2199707-.1699219-.3999634-.4101562-.4799805-.7001953-.1900024-.699707.2299805-1.4199219.9299927-1.6098633l2.2999878-.6201172-5.3800049-3.1000977c-.6199951-.3696289-.8399658-1.1699219-.4799805-1.7998047.3699951-.6298828 1.1699829-.8398438 1.7999878-.4799805l5.3800049 3.1000977-.6199951-2.300293c-.1900024-.699707.2299805-1.4199219.9299927-1.6098633.3900146-.1098633.7900391-.0200195 1.1000366.2001953l-.0100098-.0600586 7.4899902 7.4897461c2.7299805-4.0498047 6.2199707-7.5297852 10.2799683-10.2597656l-7.1300049-7.1201172h.0200195c-.4699707-.3100586-.7099609-.8798828-.5599976-1.4399414.1900024-.7001953.9100342-1.1201172 1.6099854-.9301758l2.3099976.6201172-3.1099854-5.3798828c-.3599854-.6298828-.1499634-1.4399414.4799805-1.800293.6300049-.3598633 1.4300537-.1499023 1.8000488.4804688l3.0999756 5.3798828.6199951-2.300293c.1900024-.7099609.9100342-1.1196289 1.6099854-.9296875.1700439.0400391.3300171.1196289.460022.2197266l.0200195-.0297852 8.5499878 8.5498047c3.5200195-1.0800781 7.25-1.6699219 11.1199951-1.6699219 1.6099854 0 3.2000122.1098633 4.7600098.3100586l-9.6199951-9.6201172c-.5100098-.5200195-.5100098-1.3500977 0-1.8598633.5100098-.5102539 1.3399658-.5102539 1.8599854 0l1.6900024 1.6899414v-6.2099609c0-.7299805.5800171-1.3198242 1.3099976-1.3198242.3499756 0 .6699829.1396484.9000244.3696289l.0099487-.0097656 53.25 53.2597656c.0100098 0 .0200195.0102539.0200195.0200195l9.2600098 9.2602539c-3.7399902 28.6699219-26.4299927 51.3598633-55.0999756 55.0898438l-9.2600098-9.2597656c-.0100098 0-.0100098-.0102539-.0200195-.0102539z" opacity=".1"/><circle cx="70" cy="70.009" fill="#feed32" r="37.545"/><circle cx="70" cy="70.009" fill="#efba1b" r="27.51"/><path d="m68.4055786 91.408226v-3.255127c-3.0736008-.1748886-5.386158-1.1508102-6.9390831-2.9286728-1.5533981-1.7778549-2.3300972-4.3404465-2.3300972-7.6895676v-.9287949h6.0547485c0 .1268616-.0085373.3180542-.0246582.5717773-.0170746.2537231-.0251312.4367599-.0251312.5473099 0 1.6827164.282135 2.9757919.8473511 3.880127.56427.9052429 1.4448166 1.4607086 2.6411591 1.6673126v-10.809433c-3.2727585-1.7135239-5.6061783-3.4478912-7.0016785-5.2012863s-2.0930099-3.8130684-2.0930099-6.1781158c0-2.7456245.7847595-4.9357834 2.3547554-6.5713806 1.5695229-1.6337814 3.7412453-2.5154648 6.5156441-2.6423264v-3.2612228h2.8156586v3.3092499c2.8564301.0317154 5.0328979.7937851 6.527977 2.285305 1.4945984 1.4915161 2.2423782 3.6581154 2.2423782 6.4988861v.6904869h-5.9053879v-.4992867c0-1.3492546-.2698059-2.4049149-.8094177-3.1669846-.5400848-.7611656-1.2921295-1.166214-2.2551804-1.214241v9.7374611c3.7872467 1.8730087 6.3743439 3.6590271 7.7613068 5.3571472s2.0806885 3.8166885 2.0806885 6.3566208c0 3.1262054-.8264923 5.5628357-2.4789963 7.308075-1.652977 1.7461472-4.0409241 2.706665-7.1633682 2.8815536v3.255127h-2.8156587zm.224289-26.4679031-.0251312-8.4752007c-.9635239.0797424-1.7027664.4566994-2.21772 1.1308746-.5149536.6741714-.7719574 1.59935-.7719574 2.773716 0 .8889313.2446747 1.7098999.7349701 2.4638138.4898223.7539139 1.2494506 1.4561768 2.2798385 2.1067963zm2.3917388 18.3322677c1.1128922-.1912003 1.9597702-.6551514 2.5415802-1.3927536.5813446-.7385101.8720093-1.7180557.8720093-2.9404449 0-1.2060852-.2489395-2.1983185-.7472992-2.9757919s-1.3874359-1.5558548-2.6662903-2.3333282z" fill="#e6e7e8"/><g fill="#ffcb08"><path d="m70 34.4455109c-.6985474 0-1.2700272.5713921-1.2700272 1.2698402v3.5304375c0 .6988144.5714798 1.2702065 1.2700272 1.2702065.6984482 0 1.2700195-.5713921 1.2700195-1.2702065v-3.5304375c0-.6984482-.5715713-1.2698402-1.2700195-1.2698402z"/><path d="m70 99.5010529c-.6985474 0-1.2700272.5713882-1.2700272 1.2698441v3.5304337c0 .6988144.5714798 1.2702103 1.2700272 1.2702103.6984482 0 1.2700195-.5713959 1.2700195-1.2702103v-3.5304337c0-.6984559-.5715713-1.2698441-1.2700195-1.2698441z"/><path d="m57.836731 36.5902252c-.656414.2389145-.9980049.9713058-.7591209 1.6276321l1.2074776 3.317524c.2390099.6566734.9714584.9981461 1.6278725.7592316.6563263-.238884.9980049-.9713058.7589951-1.6279793l-1.2074814-3.317524c-.2388841-.6563262-.9714166-.9977684-1.6277429-.7588844z"/><path d="m80.0870361 97.722435c-.6564102.2389145-.9980087.9713058-.7591248 1.6276321l1.2074814 3.3175278c.2390137.6566696.9714584.9981461 1.6278687.7592316.6563339-.238884.9980087-.9713058.7589951-1.6279831l-1.2074738-3.3175201c-.238884-.6563264-.9714203-.9977723-1.6277466-.7588883z"/><path d="m47.1405334 42.7656746c-.5351143.4490166-.6056137 1.2540703-.1566582 1.7891121l2.2693214 2.7044716c.4491882.5353241 1.2542534.6056938 1.7893677.1566772.5350456-.4489517.6056137-1.2540665.1564217-1.7893906l-2.2693214-2.7044716c-.4489517-.5350417-1.2540893-.6053504-1.7891312-.1563987z"/><path d="m88.957428 92.6011124c-.5351105.4490128-.6056137 1.2540665-.1566544 1.7891083l2.2693176 2.7044754c.4491882.5353241 1.2542572.60569 1.7893677.1566772.5350494-.4489517.6056137-1.2540665.1564255-1.7893906l-2.2693253-2.7044754c-.4489517-.5350418-1.2540893-.6053467-1.7891311-.1563949z"/><path d="m39.2015228 52.2270164c-.3492699.6049576-.1401711 1.3855705.4647026 1.7347946l3.0574493 1.7652168c.6051903.349411 1.3857727.1401863 1.7350426-.4647675.3492241-.6048737.1401749-1.3855705-.4650192-1.7349777l-3.0574493-1.7652168c-.6048737-.349224-1.3855019-.139923-1.734726.4649506z"/><path d="m95.541275 84.7547913c-.3492661.60495-.1401749 1.3855667.4647064 1.7347946l3.0574417 1.765213c.6051941.349411 1.3857803.1401901 1.7350464-.4647675.3492279-.6048737.1401749-1.3855667-.4650192-1.7349777l-3.0574493-1.7652206c-.6048737-.3492203-1.3854981-.1399155-1.734726.4649582z"/><path d="m34.9772644 63.8330727c-.1212997.6879311.3421745 1.3499489 1.030014 1.4712334l3.476799.6130524c.6882019.1213531 1.3501472-.3422318 1.4714508-1.030159.1212807-.6878357-.3421745-1.3499489-1.0303764-1.4712982l-3.476799-.6130524c-.6878395-.1212846-1.3498039.3423843-1.4710884 1.0302238z"/><path d="m99.0444717 75.1298523c-.1213074.6879272.3421707 1.3499451 1.0300064 1.4712296l3.476799.6130524c.6882019.1213531 1.3501511-.3422318 1.4714508-1.030159.1212845-.6878357-.3421707-1.3499527-1.0303726-1.4712982l-3.476799-.6130524c-.6878433-.1212846-1.3498001.3423843-1.4710846 1.0302276z"/><path d="m34.9772644 76.1839752c.1213036.6879272.7832489 1.1515121 1.4710884 1.0302277l3.476799-.6130524c.6882019-.1213531 1.1516762-.783371 1.0303764-1.4712982-.1212845-.6878433-.7832489-1.1515121-1.4714508-1.0301666l-3.476799.6130524c-.6878395.1212844-1.1512985.7834014-1.030014 1.4712371z"/><path d="m99.0444717 64.8871994c.1212997.6879272.7832413 1.1515121 1.4710846 1.0302277l3.476799-.6130524c.6882019-.1213531 1.1516724-.783371 1.0303726-1.471302-.1212845-.6878395-.7832489-1.1515083-1.4714508-1.0301628l-3.476799.6130562c-.6878356.1212844-1.1512908.7833976-1.0300064 1.4712333z"/><path d="m39.2015228 87.7900314c.3492737.6049576 1.1298523.8141785 1.734726.4649506l3.0574493-1.765213c.6051941-.349411.8142891-1.1300278.4650192-1.7349777-.3492241-.6048737-1.1298523-.8141785-1.7350426-.4647751l-3.0574493 1.7652206c-.6048736.3492279-.8139267 1.129921-.4647026 1.7347946z"/><path d="m95.541275 55.2622604c.3492737.6049538 1.1298523.8141785 1.734726.4649544l3.0574493-1.7652206c.6051941-.3494072.8142929-1.1300201.4650192-1.7349777-.3492203-.6048737-1.1298523-.8141747-1.7350464-.4647675l-3.0574417 1.7652168c-.6048812.3492241-.8139267 1.129921-.4647064 1.7347946z"/><path d="m47.1405334 97.2513733c.5351143.4490128 1.3401794.3786469 1.7891312-.156395l2.2693214-2.7044754c.449192-.5353241.3786926-1.3403778-.1564217-1.7893906-.5350418-.4489517-1.3401794-.3786469-1.7893677.1566772l-2.2693214 2.7044754c-.4489555.5350419-.3783836 1.3401567.1566582 1.7891084z"/><path d="m88.957428 47.4159355c.5351181.4490166 1.3401794.3786469 1.7891312-.1563988l2.2693253-2.7044678c.4491882-.5353241.3786926-1.3403778-.1564255-1.7893944-.5350418-.4489517-1.3401794-.378643-1.7893677.1566811l-2.2693176 2.7044716c-.4489594.5350418-.3783875 1.3401566.1566543 1.7891083z"/><path d="m57.836731 103.4268265c.656414.2389145 1.3888588-.102562 1.6277428-.7588882l1.2074814-3.3175201c.2390099-.6566772-.1025848-1.3890686-.7589951-1.6279831-.6563301-.238884-1.3888626.102562-1.6278725.7592316l-1.2074776 3.3175278c-.238884.6563261.1027947 1.388748.759121 1.627632z"/><path d="m80.0870361 42.2946129c.6564102.2389145 1.3888626-.1025581 1.6277466-.7588844l1.2074738-3.3175278c.2390137-.6566696-.1025772-1.389061-.7589951-1.6279755-.6563263-.238884-1.388855.1025581-1.6278687.7592278l-1.2074814 3.3175278c-.2388839.6563262.1027985 1.3887481.7591248 1.6276321z"/></g><g fill="#4388b9"><path d="m73.0020065 21.2893124-1.6875458 1.6875515v-6.2094994c0-.7255192-.5883484-1.3141766-1.3144302-1.3141766-.7261429 0-1.3144226.5886574-1.3144226 1.3141766v6.2094994l-1.6875534-1.6875515c-.5134811-.513483-1.3452682-.513483-1.858696 0-.5134811.513483-.5134811 1.3451462 0 1.8586292l3.9312973 3.9315414c.2567368.2567406.5930252.3851128.9293747.3851128.3362885 0 .6725769-.1283722.9293137-.3851128l3.9313583-3.9315414c.5134201-.513483.5134201-1.3451462 0-1.8586292-.5134888-.5134831-1.3452759-.5134831-1.858696 0z"/><path d="m70.9293442 112.9375458c-.2567368-.2567444-.5930252-.3851166-.9293137-.3851166-.3363495 0-.6726379.1283722-.9293747.3851166l-3.9312973 3.9315414c-.5134811.5134811-.5134811 1.3451462 0 1.8586273.5134277.5134811 1.3452148.5134811 1.858696 0l1.6875534-1.6875534v6.2095032c0 .7255173.5882797 1.3141708 1.3144226 1.3141708.7260818 0 1.3144302-.5886536 1.3144302-1.3141708v-6.2095032l1.6875458 1.6875534c.5134201.5134811 1.3452072.5134811 1.858696 0 .5134201-.5134811.5134201-1.3451462 0-1.8586273z"/><path d="m49.8498802 25.3861885c-.701355-.1880608-1.4216919.2280197-1.6096306.9293137l-.617691 2.3051796-3.1047478-5.3773365c-.3628235-.6286182-1.1666985-.8444004-1.7955055-.481266-.6288643.3631344-.8439636 1.1670761-.4811401 1.7954426l3.1046867 5.3775864-2.3051796-.6176281c-.701416-.1880608-1.4217567.2280197-1.6096916.9293137s.2279587 1.4218197.9293137 1.6096306l5.3702812 1.4390507c.3507118.0939064.7061653.0369644.9974327-.1311188.2912102-.1683311.5182915-.4475479.6122589-.7981949l1.4389915-5.3703442c.1879349-.7012941-.2279587-1.4218179-.9293785-1.6096288z"/><path d="m97.6397018 108.1605988-5.3702774-1.4390488c-.350708-.0939026-.7061005-.0369644-.9973755.1311188-.2912674.1683273-.5183487.4475479-.6123199.7981949l-1.4389267 5.3703461c-.1879349.7012939.2279587 1.421814.9293137 1.6096268.7014236.1878128 1.4217606-.2280197 1.6096954-.9293137l.617691-2.3051758 3.1046829 5.3773346c.3628235.6286163 1.1667633.8441467 1.7955704.4812622.6288071-.3631287.8439636-1.1670761.4810791-1.7954407l-3.1046906-5.3775864 2.3052444.61763c.701355.1880569 1.4216919-.2280197 1.6096268-.9293137.1879426-.7012939-.2279586-1.4218215-.9293136-1.6096343z"/><path d="m31.8480034 42.3688393c-.1879349-.7015419-.9082718-1.1173744-1.6096916-.9293137-.701355.187809-1.1172504.9080849-.9293137 1.6096306l.617691 2.3051796-5.3775234-3.1046257c-.6284924-.3628845-1.4324951-.14785-1.7955685.4810143-.3630714.6288681-.1473503 1.4328079.481142 1.7956924l5.3774605 3.1046257-2.3051796.6176262c-.7014179.1880608-1.1173134.9083366-.9293766 1.6098824.1879349.7012939.9082737 1.1171227 1.6096916.9290619l5.3702812-1.4388008c.350708-.0941544.6299896-.3209267.7981949-.612381.1681442-.2912102.2251511-.6466026.1311836-.9972496z"/><path d="m116.7653275 95.4906082-5.3775253-3.1046219 2.3052368-.61763c.7013626-.1880646 1.1172562-.9083328.9293213-1.6098785-.1879425-.7012939-.9082794-1.1171265-1.6096954-.9290695l-5.3702774 1.4388046c-.350647.0939026-.6299973.3209305-.7981339.612381-.1681442.2912064-.2251511.6465988-.1311874.9972458l1.4389267 5.3703461c.1879425.7015457.9083405 1.1173782 1.6096954.9293137.701416-.1878128 1.1173096-.9083328.9293747-1.6096268l-.617691-2.3051834 5.3775253 3.1046295c.6284332.3628845 1.4324951.14785 1.7955704-.4810181.3630065-.6288681.1472854-1.432808-.4811402-1.7956925z"/><path d="m27.0708771 70.9378281c.2567406-.2567444.3851109-.5929031.3851109-.9293137s-.1283703-.6725769-.3851109-.9293137l-3.9312935-3.9312973c-.513483-.5134811-1.3452702-.5134811-1.8586903 0-.513483.513237-.513483 1.3451462 0 1.8586349l1.6874886 1.6875458h-6.2093735c-.725708 0-1.3144894.5884094-1.3144894 1.3144302s.5887814 1.3144226 1.3144894 1.3144226h6.2093735l-1.6874886 1.6875534c-.513483.5134811-.513483 1.3451462 0 1.8586273.5134201.5134811 1.3452072.5134811 1.8586903 0z"/><path d="m123.2410507 68.6940842h-6.2094345l1.6875534-1.6875458c.5134201-.5134888.5134201-1.3453979 0-1.8586349-.5134811-.5134811-1.3452682-.5134811-1.8586884 0l-3.9313583 3.9312973c-.2566757.2567368-.3850479.5929031-.3850479.9293137s.1283722.6725693.3850479.9293137l3.9313583 3.9312897c.5134201.5134811 1.3452072.5134811 1.8586884 0 .5134201-.5134811.5134201-1.3451462 0-1.8586273l-1.6875534-1.6875534h6.2094345c.725647 0 1.3144302-.5884018 1.3144302-1.3144226s-.5887832-1.3144304-1.3144302-1.3144304z"/><path d="m32.3576164 90.6682129-5.3702812-1.4388046c-.7014179-.1880569-1.4217567.2277756-1.6096916.9290695-.1879368.7015457.2279587 1.421814.9293766 1.6098785l2.3051796.61763-5.3774605 3.1046219c-.6284924.3628845-.8442135 1.1668243-.481142 1.7956924.3630733.6288681 1.1670761.8439026 1.7955685.4810181l5.3775234-3.1046295-.617691 2.3051834c-.1879368.7012939.2279587 1.421814.9293137 1.6096268.7014198.1880646 1.4217567-.2277679 1.6096916-.9293137l1.4389915-5.3703461c.0939674-.350647.0369606-.7060394-.1311836-.9972458-.1682054-.2914504-.447487-.5184783-.798195-.6123809z"/><path d="m107.6423874 49.3488121 5.3702774 1.4388008c.701416.1880608 1.4217529-.2277679 1.6096954-.9290619.1879349-.7015457-.2279587-1.4218216-.9293213-1.6098824l-2.3052368-.6176262 5.3775253-3.1046257c.6284256-.3628845.8441467-1.1668243.4811401-1.7956924-.3630753-.6288643-1.1671371-.8438988-1.7955704-.4810143l-5.3775253 3.1046257.617691-2.3051796c.1879349-.7015457-.2279587-1.4218216-.9293747-1.6096306-.701355-.1880608-1.4217529.2277718-1.6096954.9293137l-1.4389267 5.3703423c-.0939636.350647-.0369568.7060394.1311874.9972496.1681367.2914543.447487.5182266.798134.612381z"/><path d="m49.3402672 107.6508636c-.0939674-.350647-.3210487-.6298676-.6122589-.7981949-.2912674-.1680832-.6467209-.2250214-.9974327-.1311188l-5.3702812 1.4390488c-.701355.1878128-1.1172485.9083405-.9293137 1.6096344s.9082756 1.1173706 1.6096916.9293137l2.3051796-.61763-3.1046867 5.3775864c-.3628235.6283646-.1477242 1.432312.4811401 1.7954407.6288071.3628845 1.432682.1473541 1.7955055-.4812622l3.1047478-5.3773346.617691 2.3051758c.1879387.7012939.9082756 1.1171265 1.6096306.9293137.7014198-.1878128 1.1173134-.9083328.9293785-1.6096268z"/><path d="m96.9593887 29.3174801-2.3052444.6176281 3.1046906-5.3775864c.3628845-.6283665.147728-1.4323082-.4810791-1.7954426s-1.4327469-.1473522-1.7955704.481266l-3.1046829 5.3773365-.617691-2.3051796c-.1879349-.7012939-.9082718-1.1173744-1.6096954-.9293137-.701355.1878109-1.1172485.9083347-.9293137 1.6096287l1.4389267 5.3703442c.0939713.350647.3210526.6298637.6123199.7981949.291275.1680832.6466675.2250252.9973755.1311188l5.3702774-1.4390507c.701355-.1878109 1.1172562-.9083366.9293137-1.6096306-.187935-.7012939-.9082719-1.1173744-1.6096269-.9293136z"/></g></svg>