<svg height="512pt" viewBox="0 0 512 512" width="512pt" xmlns="http://www.w3.org/2000/svg"><path d="m512 256c0 141.386719-114.613281 256-256 256s-256-114.613281-256-256 114.613281-256 256-256 256 114.613281 256 256zm0 0" fill="#ffc612"/><path d="m511.820312 265.117188-86.570312-87.664063-52.5 56.296875-122.15625-122.304688-127.65625 179.929688 96.5625 97.125-99.113281 28.015625 91.03125 91.609375c14.480469 2.539062 29.375 3.875 44.582031 3.875 138.332031 0 251.019531-109.722656 255.820312-246.882812zm0 0" fill="#fca915"/><path d="m194.425781 321.246094c55.476563 0 100.445313-44.972656 100.445313-100.445313 0-93.394531-100.277344-162.683593-100.277344-162.683593s-100.613281 60.753906-100.613281 162.683593c0 55.472657 44.972656 100.445313 100.445312 100.445313zm0 0" fill="#4a7aff"/><path d="m194.425781 321.246094c55.476563 0 100.445313-44.972656 100.445313-100.445313 0-93.390625-100.277344-162.683593-100.277344-162.683593zm0 0" fill="#1959db"/><path d="m251.589844 232.578125c0-24.273437-18.515625-44.300781-42.164063-46.703125v-34.765625h37.375v-30h-37.375v-23.636719h-30v23.878906c-23.648437 2.402344-42.164062 22.429688-42.164062 46.699219v.640625c0 24.269532 18.515625 44.296875 42.164062 46.699219v34.128906h-37.371093v30h37.371093v23.636719h30v-23.878906c23.648438-2.398438 42.164063-22.429688 42.164063-46.699219zm-84.328125-63.886719v-.640625c0-7.679687 5.144531-14.175781 12.164062-16.246093v33.132812c-7.019531-2.070312-12.164062-8.566406-12.164062-16.246094zm42.164062 80.132813v-32.492188c7.023438 2.066407 12.167969 8.5625 12.167969 16.246094-.003906 7.679687-5.144531 14.175781-12.167969 16.246094zm0 0" fill="#fff"/><path d="m209.425781 185.875v-34.765625h37.375v-30h-37.375v-23.636719h-15v205.683594h15v-23.878906c23.648438-2.398438 42.167969-22.429688 42.167969-46.699219-.003906-24.273437-18.519531-44.300781-42.167969-46.703125zm0 62.949219v-32.492188c7.023438 2.066407 12.167969 8.5625 12.167969 16.246094-.003906 7.679687-5.144531 14.175781-12.167969 16.246094zm0 0" fill="#e9edf5"/><path d="m392.503906 286.71875c29.769532 0 53.898438-24.128906 53.898438-53.898438 0-50.117187-53.808594-87.300781-53.808594-87.300781s-53.992188 32.601563-53.992188 87.300781c0 29.769532 24.132813 53.898438 53.902344 53.898438zm0 0" fill="#4a7aff"/><path d="m392.503906 286.71875c29.769532 0 53.898438-24.128906 53.898438-53.898438 0-50.117187-53.808594-87.300781-53.808594-87.300781zm0 0" fill="#1959db"/><path d="m420.613281 407.164062c0-19.054687-68.480469-34.5-152.957031-34.5-84.472656 0-152.957031 15.445313-152.957031 34.5 0 19.050782 68.484375 34.496094 152.957031 34.496094 84.476562 0 152.957031-15.445312 152.957031-34.496094zm0 0" fill="#65b1fc"/><path d="m267.65625 441.660156c84.476562 0 152.957031-15.445312 152.957031-34.496094 0-19.054687-68.480469-34.5-152.957031-34.5zm0 0" fill="#4a98f7"/><path d="m323.460938 398.839844c23.925781 0 43.324218-19.394532 43.324218-43.324219 0-40.277344-43.25-70.164063-43.25-70.164063s-43.394531 26.203126-43.394531 70.164063c0 23.925781 19.394531 43.324219 43.320313 43.324219zm0 0" fill="#4a7aff"/><path d="m323.460938 398.839844c23.925781 0 43.324218-19.394532 43.324218-43.324219 0-40.277344-43.25-70.164063-43.25-70.164063zm0 0" fill="#1959db"/></svg>