<svg enable-background="new 0 0 140 140" height="512" viewBox="0 0 140 140" width="512" xmlns="http://www.w3.org/2000/svg"><circle cx="70" cy="70" fill="#dc594e" r="64"/><path d="m132.7800293 57.5297852c.789978 4.0302734 1.2199707 8.2001953 1.2199707 12.4702148 0 35.3500977-28.6500244 64-64 64-3.7399902 0-7.3900146-.3398438-10.9500122-.9501953l-24.9099731-24.909668c-5.4700318-4.6704101-8.9500123-11.6201172-8.9500123-19.3901367 0-9.1899414 4.8699951-17.25 12.1799927-21.7299805l-6.960022-6.9599609c-.2599487-2.9399414.0400391-6 .960022-8.9301758.9100342-2.9199219 2.4299927-5.7299805 4.4700317-8.1499023 2.039978-2.4301758 4.6099854-4.5 7.5199585-6.0102539 2.9299927-1.5195312 6.2000122-2.449707 9.5800171-2.7397461v-4.4399414l12.2199707 12.2197266c3.3800049-10.0996094 12.9200439-17.3896484 24.1700439-17.3896484 7.3699951 0 14 3.1298828 18.6599731 8.1396484l.0100099-.0097657z" opacity=".1"/><circle cx="50.675" cy="88.755" fill="#feed32" r="25.489"/><circle cx="50.675" cy="88.755" fill="#efba1b" r="18.677"/><path d="m49.6671829 102.2799835v-2.0572739c-1.9425507-.1105347-3.40411-.7273254-4.3855782-1.8509521-.9817657-1.1236267-1.4726486-2.7432098-1.4726486-4.8598938v-.5870132h3.8266678c0 .0801773-.005394.2010193-.015583.3613739-.010788.1603546-.0158844.2760391-.0158844.3459091 0 1.0634918.1783142 1.8807297.5355377 2.4522781.3566246.5721207.9131355.9231873 1.669239 1.0537567v-6.8316803c-2.0684204-1.082962-3.5431633-2.1791-4.4251366-3.2872696-.8819695-1.1081619-1.3228035-2.4098969-1.3228035-3.9046326 0-1.7352676.4959755-3.1194687 1.4882317-4.153183.9919548-1.0325699 2.3645058-1.589798 4.1179581-1.6699753v-2.0611343h1.7795258v2.0914841c1.8052979.0200424 3.1808472.5016785 4.1257515 1.4443359.9446068.9426575 1.4172058 2.3119736 1.4172058 4.1073685v.4363937h-3.7322655v-.3155518c0-.8527451-.1705208-1.5199356-.5115623-2.0015717-.3413391-.4810638-.8166389-.7370605-1.4252968-.7674103v6.1541824c2.3935776 1.1837616 4.028656 2.3125381 4.9052315 3.3857727.8765755 1.0732269 1.3150139 2.4121857 1.3150139 4.0174561 0 1.9757919-.5223503 3.51577-1.5667496 4.618782-1.0447006 1.1035843-2.5539093 1.71064-4.5273285 1.8211746v2.0572739h-1.7795258zm.1417504-16.7280044-.0158806-5.3564148c-.6089592.0503922-1.0761681.2886353-1.4016228.7147217-.3254585.4260864-.4878883 1.0108032-.4878883 1.7530212 0 .5618134.1546364 1.0806732.4645119 1.5571518.3095741.4764862.789669.9203262 1.4408798 1.3315201zm1.5116081 11.5861892c.7033577-.1208344 1.2385941-.4140549 1.606308-.8802261.3674126-.4667511.5511169-1.0858307.5511169-1.8583984 0-.7622604-.1573334-1.3893585-.4723015-1.8807297s-.8768768-.9833221-1.6851234-1.4746933z" fill="#e6e7e8"/><circle cx="89.325" cy="50.105" fill="#dad7dc" r="25.489"/><circle cx="89.325" cy="50.105" fill="#b0b1b5" r="18.677"/><path d="m95.2814484 56.1833115 1.465332 3.2291679c-.5155792.2804031-1.1103058.5087967-1.7841797.6851807s-1.3273926.264576-1.9605637.264576c-.8140793 0-1.8995132-.192215-3.2563019-.5766373-1.3567963-.3844261-2.360817-.5766373-3.012085-.5766373-1.1035233 0-2.22966.3934708-3.3784103 1.1804085l-1.451767-3.2834358c1.0221176-.7326698 1.7570419-1.512825 2.2047882-2.3404694.4477386-.8276443.671608-1.6168442.671608-2.3676033 0-.2442207-.0180893-.5020142-.0542679-.7733727h-2.8221283v-2.9985123h2.1301651c-.3708572-1.0673409-.5562897-2.1482544-.5562897-3.242733 0-.9859352.269104-1.9266472.8072968-2.8221283.5381927-.8954849 1.3002548-1.5761414 2.2861938-2.0419731s2.0623245-.6987495 3.2291641-.6987495c1.7819214 0 3.202034.4500046 4.2603302 1.3500099s1.70504 2.1912193 1.9402161 3.873642l-3.6769104.542717c-.1718597-.9678459-.4839249-1.6643333-.9361877-2.0894585-.4522629-.4251289-1.0175934-.6376953-1.6959915-.6376953-.7236176 0-1.3251343.2419624-1.8045349.7258835-.4794006.4839249-.7190933 1.0922203-.7190933 1.8248863 0 .3799019.0655746.881916.1967316 1.5060425.1311569.6241226.2917099 1.1939774.4816589 1.7095566h4.2331924v2.9985123h-3.6090622c.0271301.1989975.0407028.397995.0407028.5969887 0 .7145805-.1356812 1.3748856-.4070435 1.9809189-.2713547.6060333-.8276367 1.4020195-1.6688538 2.3879547.4974899-.2532692 1.1216202-.3799019 1.8723755-.3799019.3165817 0 .6015091.0180893.8547821.0542717.1266327.0180893.4974899.1040192 1.1125641.2577896 1.0944824.2804031 1.8407211.4206085 2.2387085.4206085.705536-.0000001 1.6281511-.2532692 2.7678606-.7598076z" fill="#e6e7e8"/><path d="m52.9364815 45.2670631v-4.4079399c-5.0430832-.5728989-10.4971085.946373-14.755703 4.457798-4.2710609 3.4491005-7.2222023 8.828495-7.7700977 14.7432404-.2615204-2.9386787.0373173-6.0019951.9587593-8.9280586.9090557-2.9263649 2.428175-5.7280846 4.4703388-8.1561813 2.04216-2.4281006 4.6072884-4.4953423 7.5210381-6.0019989 2.9262886-1.5191193 6.2011948-2.4530258 9.5756645-2.739399v-4.4454842l7.7327805 7.7453194z" fill="#fdd96f"/><path d="m87.0635147 93.5929565v4.4079361c5.0430832.5729065 10.4971085-.9463654 14.7557068-4.4577942 4.2710648-3.4491043 7.2221985-8.8284912 7.7700958-14.7432404.2615204 2.9386749-.0373154 6.0019989-.9587555 8.9280548-.9090576 2.9263687-2.4281769 5.7280884-4.4703369 8.156189-2.0421677 2.428093-4.6072922 4.4953384-7.5210419 6.0019913-2.9262848 1.5191193-6.2011948 2.4530334-9.5756683 2.7394028v4.445488l-7.7327805-7.7453232z" fill="#ffd25a"/></svg>