<?xml version="1.0" encoding="iso-8859-1"?>
<!-- Generator: Adobe Illustrator 21.0.0, SVG Export Plug-In . SVG Version: 6.00 Build 0)  -->
<svg xmlns="http://www.w3.org/2000/svg" xmlns:xlink="http://www.w3.org/1999/xlink" version="1.1" id="Capa_1" x="0px" y="0px" viewBox="0 0 512 512" style="enable-background:new 0 0 512 512;" xml:space="preserve" width="512" height="512">
<g>
	<g>
		<g>
			<g>
				<g>
					<g>
						<g>
							<g>
								<g>
									<g>
										<g>
											<g>
												<circle style="fill:#FF432E;" cx="256" cy="256" r="256"/>
											</g>
										</g>
									</g>
								</g>
							</g>
						</g>
					</g>
				</g>
			</g>
		</g>
	</g>
	<path style="fill:#DB0404;" d="M256,512c141.385,0,256-114.615,256-256c0-11.561-0.78-22.939-2.265-34.094l-78.991-78.991   l-8.673,10.508l-16.318-16.318l-23.064,12.585L289.5,56.5l-67,41l50.939,50.939l-134.844,255.85l108.034,107.523   c0.006,0,0.011,0,0.017,0c0.211,0.007,0.423,0.011,0.634,0.018l-0.005,0.006C250.173,511.933,253.078,512,256,512z"/>
	<g>
		
			<rect x="118.095" y="115.214" transform="matrix(0.7071 -0.7071 0.7071 0.7071 -58.7278 139.1405)" style="fill:#333940;" width="41" height="50.495"/>
	</g>
	<g>
		
			<rect x="348.157" y="119.962" transform="matrix(0.7071 -0.7071 0.7071 0.7071 10.0463 305.1773)" style="fill:#23272B;" width="50.495" height="41"/>
	</g>
	<circle style="fill:#FFFFFF;" cx="256" cy="279.231" r="156.622"/>
	<path style="fill:#E9EDF5;" d="M256,122.609c-0.032,0-0.063,0.001-0.095,0.001v313.242c0.032,0,0.063,0.001,0.095,0.001   c86.5,0,156.622-70.122,156.622-156.622S342.5,122.609,256,122.609z"/>
	<g>
		<path style="fill:#CDD2E1;" d="M256,208.957c-38.812,0-70.275,31.463-70.275,70.275c0,0.258,0.017,0.512,0.019,0.769H132.1    c-0.002-0.257-0.01-0.512-0.01-0.769c0-68.433,55.476-123.91,123.91-123.91c0.334,0,0.666,0.01,1,0.013v53.648    C256.666,208.977,256.335,208.957,256,208.957z"/>
	</g>
	<path style="fill:#555A66;" d="M271,108.272V83h-30v25.272c-87.634,7.625-156.622,81.381-156.622,170.959   c0,94.633,76.989,171.622,171.622,171.622s171.622-76.989,171.622-171.622C427.622,189.653,358.634,115.897,271,108.272z    M256,420.854c-78.091,0-141.622-63.531-141.622-141.622S177.909,137.609,256,137.609s141.622,63.532,141.622,141.623   S334.091,420.854,256,420.854z"/>
	<path style="fill:#333940;" d="M271,108.272V83h-15.095v54.61c0.032,0,0.063-0.001,0.095-0.001   c78.091,0,141.622,63.532,141.622,141.623S334.091,420.854,256,420.854c-0.032,0-0.063-0.001-0.095-0.001v30   c0.032,0,0.063,0.001,0.095,0.001c94.633,0,171.622-76.989,171.622-171.622C427.622,189.653,358.634,115.897,271,108.272z"/>
	<g>
		<rect x="222.5" y="56.5" style="fill:#333940;" width="67" height="41"/>
	</g>
	<g>
		<rect x="255.905" y="56.5" style="fill:#23272B;" width="33.595" height="41"/>
	</g>
	<g>
		
			<rect x="209.463" y="213.854" transform="matrix(0.6846 -0.7289 0.7289 0.6846 -115.0047 244.0136)" style="fill:#555A66;" width="30" height="82.089"/>
	</g>
	<g>
		<polygon style="fill:#333940;" points="255.905,263.849 255.905,281.375 264.65,272.063   "/>
	</g>
	<g>
		<polygon style="fill:#FFC200;" points="360.042,251.32 430.744,142.915 335.527,142.915 265.143,276.429 322.487,276.429     272.911,397.929 272.911,397.929 439.688,251.32   "/>
	</g>
	<g>
		<polygon style="fill:#FF9500;" points="360.042,251.32 430.744,142.915 359.476,142.915 359.476,321.832 439.688,251.32   "/>
	</g>
</g>















</svg>
