<?xml version="1.0" encoding="iso-8859-1"?>
<!-- Generator: Adobe Illustrator 19.0.0, SVG Export Plug-In . SVG Version: 6.00 Build 0)  -->
<svg version="1.1" id="Capa_1" xmlns="http://www.w3.org/2000/svg" xmlns:xlink="http://www.w3.org/1999/xlink" x="0px" y="0px"
	 viewBox="0 0 512 512" style="enable-background:new 0 0 512 512;" xml:space="preserve">
<path style="fill:#E4EAF8;" d="M180.794,330.645c-74.017-74.017-74.017-194.451-0.001-268.469
	c74.018-74.018,194.452-74.018,268.47-0.001s74.017,194.451-0.001,268.47C375.245,404.662,254.81,404.662,180.794,330.645z"/>
<path style="fill:#C2C7D0;" d="M200.773,330.645c-74.017-74.017-74.017-194.451,0-268.469
	c34.473-34.473,79.015-52.882,124.246-55.244c-51.887-2.709-104.68,15.7-144.225,55.244c-74.017,74.017-74.017,194.451,0,268.469
	c39.544,39.544,92.338,57.953,144.223,55.243C279.786,383.527,235.245,365.118,200.773,330.645z"/>
<path style="fill:#ABFFDB;" d="M315.028,353.053c-86.395,0-156.433-70.038-156.433-156.433S228.633,40.189,315.028,40.189
	c86.396,0,156.433,70.037,156.433,156.433S401.424,353.053,315.028,353.053z"/>
<path style="fill:#92E0C0;" d="M178.575,196.622c0-83.038,64.705-150.953,146.443-156.106c-3.304-0.208-6.633-0.327-9.989-0.327
	c-86.395,0-156.433,70.037-156.433,156.433c0,89.9,75.765,161.821,166.422,156.106C243.279,347.574,178.575,279.66,178.575,196.622z
	"/>
<path style="fill:#FFC850;" d="M29.855,498.167l-16.058-16.058c-8.403-8.403-8.403-22.155,0-30.558l110.207-110.207
	c4.665-4.665,12.299-4.665,16.965,0l28.781,28.781c4.665,4.665,4.665,12.299,0,16.965L58.673,498.167
	C50.747,506.092,37.779,506.092,29.855,498.167z"/>
<path style="fill:#FEA82F;" d="M25.676,467.921l114.692-114.692c2.467-2.467,5.764-3.615,9.014-3.471l-8.419-8.419
	c-4.662-4.662-12.29-4.662-16.953,0L13.786,451.563c-8.398,8.398-8.398,22.139,0,30.537l6.231,6.231
	C18.296,481.238,20.166,473.43,25.676,467.921z"/>
<rect x="78.079" y="385.641" transform="matrix(-0.7071 -0.7071 0.7071 -0.7071 -94.8015 762.0529)" style="fill:#FF9052;" width="64.693" height="30.038"/>
<rect x="79.593" y="374.857" transform="matrix(-0.7071 0.7071 -0.7071 -0.7071 433.6392 590.0682)" style="fill:#FF8031;" width="30.039" height="19.973"/>
<path style="fill:#868B9B;" d="M255.165,341.774V178.113h-49.821c-4.455,0-8.067,3.612-8.067,8.067v114.099
	C213.002,318.222,232.777,332.515,255.165,341.774z"/>
<path style="fill:#FFFFFF;" d="M313.054,353.562V121.261h-28.944c0,0-12.315,0-20.88,0c-4.456,0-8.065,3.612-8.065,8.067v212.446
	C273.035,349.164,292.567,353.333,313.054,353.562z"/>
<path style="fill:#FFC850;" d="M370.943,343.197V128.52V64.408h-28.944h-20.877c-4.455,0-8.067,3.612-8.067,8.068v56.045l0,0
	v225.042C333.294,353.784,352.656,350.237,370.943,343.197z"/>
<path style="fill:#FF9052;" d="M428.831,304.201V15.402c0-4.333-3.513-7.847-7.847-7.847h-21.098c0,0-12.315,0-20.879,0
	c-4.455,0-8.065,3.612-8.065,8.068v327.574C393.119,334.66,412.863,321.227,428.831,304.201z"/>
<path style="fill:#707487;" d="M217.268,185.18c0-3.045,1.688-5.695,4.179-7.067h-16.105c-4.455,0-8.067,3.612-8.067,8.067v114.099
	c6.084,6.941,12.78,13.329,19.993,19.098V185.18z"/>
<path style="fill:#E4EAF8;" d="M275.158,127.329c0-2.422,1.072-4.589,2.761-6.069c-4.29,0-10.04,0-14.69,0
	c-4.456,0-8.065,3.612-8.065,8.068v212.446c6.458,2.671,13.134,4.913,19.993,6.708V127.329H275.158z"/>
<path style="fill:#FEA82F;" d="M333.046,128.52L333.046,128.52V70.477c0-2.422,1.073-4.589,2.763-6.069h-14.689
	c-4.455,0-8.067,3.612-8.067,8.068v56.045l0,0v225.042c6.712,0.075,12.889-0.194,19.993-1.022L333.046,128.52L333.046,128.52z"/>
<path style="fill:#FF8031;" d="M390.936,13.624c0-2.422,1.073-4.589,2.762-6.069c-4.289,0-10.04,0-14.69,0
	c-4.455,0-8.065,3.612-8.065,8.067v327.574c6.914-2.662,13.592-5.8,19.993-9.374V13.624z"/>
<path style="fill:#474D54;" d="M511.392,183.285c-3.902-55.722-31.194-107.049-75.056-141.419V15.402
	c0-8.461-6.883-15.344-15.344-15.344h-41.977c-5.319,0-10.023,2.683-12.831,6.766c-68.199-18.337-140.692,0.828-190.75,50.886
	c-75.067,75.067-76.823,196.108-5.269,273.326l-14.933,14.54l-8.972-8.972c-3.673-3.673-8.567-5.695-13.784-5.695
	c-5.217,0-10.111,2.022-13.783,5.695L8.622,446.677c-5.48,5.48-8.499,12.788-8.499,20.58c0,7.791,3.019,15.099,8.499,20.579
	l16.012,16.012c5.434,5.434,12.572,8.151,19.71,8.151s14.276-2.717,19.71-8.151l110.942-110.942
	c3.673-3.673,5.695-8.567,5.695-13.784s-2.022-10.111-5.695-13.783l-9.16-9.16l14.929-14.537
	c32.907,30.519,75.356,48.928,120.346,52.041c0.176,0.012,0.351,0.019,0.525,0.019c3.905,0,7.198-3.026,7.471-6.98
	c0.286-4.13-2.831-7.711-6.961-7.997c-43.848-3.034-85.083-21.792-116.11-52.817c-34.345-34.346-53.261-80.087-53.261-128.798
	s18.915-94.452,53.26-128.797C232.566,21.783,300.09,4.149,363.451,21.622v35.29h-42.324c-8.583,0-15.565,6.982-15.565,15.564
	v41.288h-42.326c-8.581,0-15.562,6.982-15.562,15.564v41.288h-42.324c-8.582,0-15.564,6.982-15.564,15.565v114.098
	c0,1.818,0.661,3.575,1.859,4.941c16.542,18.874,37.519,33.909,60.662,43.481c19.26,7.966,39.672,12.122,60.67,12.357h0.005
	c0.218,0.002,0.435,0.008,0.653,0.014c0.399,0.01,0.798,0.02,1.2,0.02c20.236,0,40.023-3.667,58.809-10.899
	c22.871-8.806,43.85-22.936,60.664-40.866c1.303-1.389,2.028-3.224,2.028-5.128v-90.041c0-4.14-3.357-7.497-7.497-7.497
	s-7.497,3.357-7.497,7.497v87.033c-12.334,12.635-26.969,23.074-42.895,30.635V16.165c0.002-0.106,0.002-0.211,0-0.316v-0.226
	c0-0.314,0.255-0.57,0.568-0.57h41.977c0.193,0,0.35,0.157,0.35,0.35l0,0c0,0.033,0-0.033,0,0v163.769
	c0,4.14,3.357,7.497,7.497,7.497s7.497-3.357,7.497-7.497V61.423c35.099,31.463,56.777,75.461,60.099,122.908
	c3.692,52.725-15.555,104.328-52.804,141.577c-29.328,29.327-66.628,47.328-107.869,52.057c-4.113,0.472-7.066,4.188-6.595,8.302
	c0.438,3.824,3.681,6.644,7.439,6.644c0.285,0,0.573-0.016,0.863-0.049c44.639-5.118,85.016-24.603,116.763-56.351
	C494.553,296.191,515.387,240.341,511.392,183.285z M164.393,382.304L53.45,493.247c-5.021,5.022-13.192,5.021-18.214,0
	l-16.012-16.012c-2.648-2.648-4.106-6.192-4.106-9.977c0-3.787,1.458-7.329,4.106-9.977l110.072-110.072
	c0.84-0.841,1.969-1.303,3.18-1.303c1.211,0,2.34,0.463,3.181,1.303l28.735,28.735c0.841,0.84,1.303,1.969,1.303,3.18
	C165.696,380.335,165.233,381.465,164.393,382.304z M204.78,297.418V186.18c0-0.315,0.256-0.571,0.57-0.571h42.324v144.469
	C231.585,321.909,216.945,310.778,204.78,297.418z M262.669,129.328c0-0.314,0.255-0.57,0.568-0.57h42.326v217.034
	c-14.749-0.903-29.126-3.96-42.894-9.122V129.328z M320.558,72.476c0-0.314,0.256-0.57,0.571-0.57h42.324v266.051
	c-13.827,4.785-28.21,7.479-42.895,8.035V72.476z"/>
<g>
</g>
<g>
</g>
<g>
</g>
<g>
</g>
<g>
</g>
<g>
</g>
<g>
</g>
<g>
</g>
<g>
</g>
<g>
</g>
<g>
</g>
<g>
</g>
<g>
</g>
<g>
</g>
<g>
</g>
</svg>
